<svg width="80" height="80" viewBox="0 0 463 463" fill="none" xmlns="http://www.w3.org/2000/svg">
    <path d="M231.504 0C103.849 0 0 103.853 0 231.504C0 359.147 103.849 463 231.504 463C359.151 463 463 359.147 463 231.504C462.992 103.853 359.151 0 231.504 0ZM231.504 451.371C110.26 451.371 11.6213 352.736 11.6213 231.504C11.6213 110.264 110.26 11.6291 231.504 11.6291C352.74 11.6291 451.379 110.264 451.379 231.504C451.379 352.736 352.732 451.371 231.504 451.371V451.371ZM231.504 49.8483C131.183 49.8483 49.8501 131.17 49.8501 231.496C49.8501 331.813 131.183 413.135 231.504 413.135C331.817 413.135 413.142 331.813 413.142 231.496C413.142 131.179 331.817 49.8483 231.504 49.8483V49.8483ZM352.054 281.434V352.042H281.444L231.512 401.98L181.572 352.042H110.962V281.434L61.0059 231.496L110.946 181.558V110.942H181.556L231.496 61.0038L281.428 110.942H352.038V181.558L401.986 231.496L352.054 281.434ZM294.911 218.83C280.154 220.504 272.044 245.256 271.391 247.331C271.734 246.408 273.735 242.406 284.033 237.098C295.818 230.981 319.371 244.064 319.371 244.064C308.517 253.627 288.557 254.493 272.24 252.737C255.931 250.965 256.813 216.208 255.931 189.275C255.008 162.317 249.577 164.939 249.577 164.939C249.577 164.939 250.484 152.738 238.724 208.385C226.931 264.015 163.483 277.923 163.483 277.923C198.845 283.165 224.219 266.628 233.252 249.25C242.333 231.847 248.646 195.326 248.646 195.326C248.646 247.519 253.211 260.536 266.817 266.612C280.415 272.729 306.704 264.031 325.741 257.057C337.852 252.631 352.03 254.468 352.03 254.468L362.891 237.956C362.891 237.956 347.464 238.805 336.619 234.485C325.733 230.157 310.33 217.107 294.911 218.83V218.83ZM178.885 251.022C182.528 242.341 176.166 195.359 176.166 183.167C176.166 171.023 180.698 164.057 180.698 164.057C174.377 160.57 169.861 144.915 169.861 144.915C168.007 149.259 161.694 158.822 161.694 158.822C161.694 158.822 179.816 244.946 168.007 255.326C156.255 265.754 132.67 267.527 119.088 258.862C105.474 250.148 119.962 222.292 119.962 222.292C111.795 231.855 105.474 243.166 106.372 255.318C107.271 267.518 116.344 279.654 138.1 280.544C159.84 281.434 175.243 259.703 178.885 251.022V251.022ZM206.081 209.275C216.052 216.225 221.5 237.98 221.5 237.98C226.939 189.283 182.536 175.368 182.536 175.368C182.536 175.368 181.613 177.964 182.536 190.99C183.418 204.081 196.085 202.317 206.081 209.275V209.275ZM181.05 290.082C182.863 290.254 183.091 290.45 183.091 293.561V296.893H177.138V293.561C177.138 290.45 177.366 290.262 179.122 290.082V288.955H169.926V290.082C172.017 290.254 172.254 290.45 172.254 293.561V303.043C172.254 306.154 172.025 306.358 170.041 306.53V307.649H179.237V306.53C177.366 306.358 177.138 306.154 177.138 303.043V298.682H183.091V303.043C183.091 306.154 182.863 306.358 180.821 306.53V307.649H190.188V306.53C188.204 306.358 187.975 306.154 187.975 303.043V293.561C187.975 290.45 188.204 290.262 190.245 290.082V288.955H181.05V290.082V290.082ZM239.459 305.313C238.862 306.056 237.621 306.154 236.706 306.154C236.024 306.207 235.337 306.121 234.689 305.901C234.183 305.64 234.117 304.921 234.117 303.426V293.561C234.117 290.45 234.338 290.262 236.412 290.082V288.955H227.07V290.082C228.989 290.254 229.226 290.45 229.226 293.561V303.043C229.226 306.154 229.005 306.358 226.816 306.53V307.649H241.076C241.329 306.758 241.933 303.769 242.113 302.675L240.888 302.487C240.614 303.519 240.127 304.481 239.459 305.313ZM290.427 305.313C289.823 306.056 288.582 306.154 287.667 306.154C286.984 306.208 286.298 306.122 285.65 305.901C285.144 305.64 285.078 304.921 285.078 303.426V293.561C285.078 290.45 285.307 290.262 287.381 290.082V288.955H278.03V290.082C279.949 290.254 280.194 290.45 280.194 293.561V303.043C280.194 306.154 279.966 306.358 277.777 306.53V307.649H292.036C292.29 306.758 292.886 303.769 293.065 302.675L291.832 302.487C291.568 303.517 291.089 304.48 290.427 305.313V305.313ZM266.197 303.704C265.102 300.781 263.869 297.383 262.62 293.97L260.676 288.539L258.691 288.939L252.942 303.802C251.995 306.219 251.57 306.334 250.1 306.53V307.649H256.788V306.53L255.947 306.432C254.624 306.285 254.624 305.999 255 304.766L255.857 302.006H260.562L261.607 304.937C261.974 305.966 261.909 306.26 260.847 306.399L259.998 306.522V307.64H269.014V306.522C267.634 306.35 267.119 306.203 266.197 303.704V303.704ZM256.364 300.282L258.152 294.794H258.242L260.063 300.282H256.364ZM215.228 303.704C214.133 300.781 212.892 297.383 211.659 293.97L209.707 288.539L207.722 288.939L201.973 303.802C201.026 306.219 200.593 306.334 199.123 306.53V307.649H205.82V306.53L204.987 306.432C203.663 306.285 203.663 305.999 204.031 304.766L204.897 302.006H209.609L210.646 304.937C211.014 305.966 210.956 306.26 209.895 306.399L209.029 306.522V307.64H218.045V306.522C216.665 306.35 216.151 306.203 215.228 303.704V303.704ZM205.395 300.282L207.192 294.794H207.273L209.086 300.282H205.395ZM446.519 229.511H436.491L433.387 219.981L430.3 229.511H420.28L428.389 235.4L425.286 244.93L433.371 239.034L441.48 244.93L438.385 235.4L446.519 229.511V229.511ZM32.6917 229.511L29.5965 219.981L26.5012 229.511H16.4888L24.5902 235.4L21.495 244.93L29.6046 239.034L37.6979 244.93L34.6027 235.4L42.7123 229.511H32.6917ZM125.744 53.8091L131.363 63.6987C133.2 66.9327 133.078 67.2757 130.897 68.7538L131.567 69.9216L146.431 61.4774C145.88 59.522 145.256 57.588 144.56 55.6792L143.139 56.2019C143.483 57.4374 143.558 58.7323 143.36 59.9993C143.172 61.1345 141.939 61.9593 140.975 62.5146C140.044 63.0291 139.342 63.3884 138.729 63.4292C138.035 63.4619 137.545 62.7514 136.663 61.1998L130.824 50.91C128.986 47.6761 129.109 47.3331 131.167 45.9366L130.514 44.7524L120.779 50.2893L121.44 51.449C123.547 50.5017 123.907 50.567 125.744 53.8091V53.8091ZM389.115 122.408C387.849 120.391 387.882 120.023 390.83 117.777L399.895 110.901C402.86 108.655 403.211 108.713 404.82 110.493L405.906 109.668L399.152 100.775L398.082 101.591C399.348 103.608 399.324 103.976 396.351 106.222L387.31 113.098C384.346 115.352 383.986 115.287 382.377 113.506L381.299 114.331L388.053 123.224L389.115 122.408V122.408ZM50.5851 173.685L53.419 163.281L52.1123 162.922C51.2303 165.241 51.1078 165.298 47.3919 164.392L36.1544 161.697C32.6345 160.847 32.5365 160.676 32.9938 158.095L31.6953 157.744L29.4903 165.829L41.2831 174.502L26.5421 176.731L24.4187 184.547L25.7172 184.898C26.6646 182.342 27.0974 182.17 31.2298 183.534L37.8531 185.731C40.834 186.719 42.5408 187.397 43.529 187.83C44.705 188.352 44.8684 189.087 44.5662 190.721L45.8565 191.072L48.0779 182.856L46.7794 182.505C46.028 184.628 45.538 185.273 44.264 185.078C42.3989 184.727 40.5598 184.249 38.7596 183.648L31.4422 181.419L31.4585 181.354L48.6251 179.475L49.1069 177.679L34.1862 166.736L34.2189 166.597L45.9627 169.675C49.6704 170.639 49.7358 170.778 49.2866 173.326L50.5851 173.685ZM335.859 74.6337C340.278 77.639 344.843 76.9938 347.236 73.4904C349.498 70.1503 348.232 67.1695 346.427 64.1806L345.978 63.4701C344.728 61.4039 344.173 59.8278 345.129 58.3987C345.346 58.0667 345.627 57.7819 345.957 57.5614C346.286 57.3408 346.657 57.189 347.047 57.115C347.436 57.0411 347.837 57.0465 348.224 57.1309C348.612 57.2154 348.978 57.3771 349.302 57.6065C351.548 59.1418 351.172 61.8449 350.519 64.1479L351.907 64.8012C352.912 62.6534 353.671 61.11 354.3 59.9258C354.014 59.5665 353.63 59.1418 353.099 58.5212C352.403 57.7067 351.598 56.9922 350.707 56.3979C346.239 53.3518 342.115 54.3889 339.935 57.5984C337.86 60.6526 339.502 63.9356 341.111 66.6142L341.405 67.1042C342.597 69.0886 343.071 70.7791 341.927 72.4614C340.67 74.3152 338.865 74.503 337.37 73.4985C334.577 71.5957 335.059 67.292 335.574 65.234L334.063 64.7441C333.115 66.8837 332.437 68.6721 331.776 70.1421C331.996 70.5423 332.446 71.1793 333.107 72.0449C333.711 72.8371 334.724 73.8579 335.859 74.6337V74.6337ZM270.778 27.8314C272.191 32.3394 272.934 34.724 273.269 36.3899C273.45 37.1198 273.427 37.8852 273.204 38.6031L272.567 41.494C271.742 45.1199 271.423 45.2996 268.753 44.9239L268.475 46.2388L280.121 48.8112L280.407 47.4964C277.695 46.6879 277.483 46.3939 278.275 42.768L279.027 39.4034C279.337 37.9824 279.492 37.8109 280.309 36.7574C282.008 34.626 283.551 32.9927 285.266 31.1062C286.85 29.3831 287.512 29.0973 289.447 29.3178L289.733 28.0029L281.632 26.2063L281.33 27.5211L282.726 27.9703C283.919 28.3459 283.731 28.8033 283.184 29.5872C281.607 31.7514 279.451 34.6586 278.52 35.7938C277.777 33.1152 277.271 30.9592 276.519 27.9376C276.348 27.1536 276.299 26.7453 277.165 26.8106L278.586 26.9086L278.88 25.5938L268.491 23.2909L268.206 24.6057C269.651 25.1447 270.043 25.406 270.778 27.8314V27.8314ZM202.708 44.4258L202.561 43.0865L201.556 43.1028C199.964 43.1028 199.915 42.7598 200.201 41.2409L200.862 37.8354L206.481 37.2066L208.106 40.5549C208.694 41.739 208.662 42.0902 207.42 42.4005L206.408 42.6537L206.571 43.993L217.318 42.7925L217.163 41.4532C215.464 41.4368 214.827 41.3225 213.398 38.4806C211.7 35.1323 209.772 31.2532 207.829 27.3496L204.766 21.1349L202.455 21.8781L197.596 40.3589C196.795 43.3641 196.305 43.5683 194.582 43.993L194.737 45.3323L202.708 44.4258ZM202.594 28.9421L202.7 28.9339L205.599 35.2303L201.213 35.7366L202.594 28.9421V28.9421ZM75.8695 117.492L76.8822 118.373L82.1579 112.322L81.1453 111.44L80.4102 112.126C79.2342 113.212 78.9811 112.975 78.1562 111.669L76.3432 108.713L80.0591 104.458L83.5218 105.83C84.755 106.312 84.9673 106.589 84.2568 107.659L83.6851 108.525L84.6978 109.398L91.8111 101.24L90.8066 100.366C89.5407 101.501 88.9935 101.861 86.0127 100.709C82.5009 99.3864 78.4665 97.8184 74.3995 96.2504L67.9477 93.727L66.7554 95.8339L75.649 112.747C77.07 115.523 76.825 116.013 75.8695 117.492V117.492ZM71.6146 100.979L71.6799 100.889L78.0664 103.584L75.1753 106.908L71.6146 100.979V100.979ZM435.462 175.874L434.433 173.669L415.502 171.162C412.423 170.737 412.17 170.272 411.525 168.614L410.218 168.932L412.096 176.739L413.411 176.429L413.256 175.433C413.068 173.857 413.403 173.775 414.93 173.865L418.401 174.085L419.724 179.59L416.596 181.623C415.494 182.35 415.143 182.366 414.685 181.158L414.301 180.186L413.003 180.504L415.551 191.023L416.849 190.704C416.662 189.014 416.678 188.369 419.34 186.596C422.444 184.498 426.045 182.097 429.688 179.688L435.462 175.874V175.874ZM421.578 178.446L420.549 174.175L427.45 174.69L427.474 174.788L421.578 178.446ZM313.107 411.657C310.991 410.8 309.546 410.522 308.754 410.89C307.627 411.412 306.802 412.923 306.189 415.463C305.422 418.631 304.785 420.436 304.442 420.91C304.017 421.53 302.572 422.38 300.179 423.392C300.179 423.376 300.162 423.368 300.154 423.352C294.005 425.712 289.488 427.566 283.2 429.362C283.208 429.37 281.46 429.591 281.469 429.607C281.117 429.713 282.024 429.787 281.91 429.836C280.823 430.105 278.961 429.607 278.21 429.354C275.319 428.382 274.853 426.471 273.236 421.947C271.783 417.986 271.432 416.247 270.002 412.278C269.472 413.192 268.908 414.107 268.344 415.005C269.194 419.203 269.382 420.991 270.803 424.83C272.444 429.28 273.334 432.278 275.997 433.846C276.884 434.283 277.858 434.515 278.847 434.523C279.638 434.608 280.438 434.564 281.215 434.393C288.938 432.279 296.544 429.757 304.001 426.839C306.965 425.679 308.239 423.76 307.749 421.187C307.978 421.416 309.195 421.424 311.424 421.163C313.654 420.877 315.091 420.567 315.72 420.281C317.264 419.571 318.064 418.493 318.105 417.096C318.082 415.893 317.647 414.734 316.872 413.813C316.341 413.168 315.075 412.458 313.107 411.657V411.657ZM313.629 417.039C313.09 417.3 312.069 417.504 310.55 417.619C308.974 417.766 308.109 417.684 307.945 417.423C307.774 417.17 307.847 416.639 308.182 415.863C308.492 415.087 308.868 414.581 309.276 414.401C310.077 414.042 311.04 414.058 312.167 414.434C313.016 414.656 313.777 415.132 314.348 415.798C314.675 416.255 314.446 416.671 313.629 417.039V417.039ZM259.818 420.371C260.325 419.007 260.651 417.79 260.782 416.68C260.07 416.468 259.391 416.157 258.765 415.757C257.964 415.259 257.523 414.801 257.425 414.368C257.383 414.073 257.405 413.772 257.491 413.486C257.563 413.198 257.585 412.9 257.556 412.604C257.483 412.294 257.344 412.163 257.099 412.188C256.756 412.229 256.209 413.005 255.351 414.475C254.502 415.953 254.093 416.892 254.159 417.276C254.224 417.619 254.943 418.231 256.339 419.13C257.662 424.103 259.018 429.084 260.415 434.042C259.051 434.63 256.666 435.079 253.636 435.414V435.405C246.637 436.018 239.597 436.345 232.566 436.385C230.336 436.377 228.76 436.255 228.107 436.042C227.373 435.796 226.715 435.366 226.196 434.793C225.719 434.346 225.372 433.779 225.191 433.151C224.758 430.838 224.358 428.518 223.991 426.194C223.966 425.932 223.713 425.72 223.247 425.548C222.61 425.991 222.036 426.519 221.541 427.116C221.081 427.667 220.518 428.122 219.883 428.456C219.058 428.831 217.89 428.97 216.379 428.889C215.41 428.115 214.452 427.328 213.504 426.528C212.484 427.721 211.438 428.905 210.368 430.089C212.181 431.722 213.031 433.445 212.794 435.316C212.725 435.819 212.596 436.312 212.41 436.786C212.306 437.081 212.205 437.378 212.108 437.676H211.994C210.973 438.95 208.947 440.15 205.844 441.204C202.651 442.29 199.866 442.674 197.579 442.388C195.403 442.094 193.256 441.616 191.16 440.959C191.805 441.906 193.185 442.894 195.333 443.923C197.473 444.944 199.409 445.532 201.099 445.728C203.957 446.03 206.8 445.164 209.47 443.131C210.973 442.012 212.165 440.632 213.219 439.129C214.819 437.561 215.71 435.593 215.906 433.233L215.955 432.792C218.307 432.482 220.332 431.632 221.965 430.277C222.137 431.559 222.316 432.849 222.48 434.156C222.872 436.091 223.517 437.619 224.423 438.705C225.632 440.175 227.339 440.926 229.471 440.934C238.359 440.989 247.245 440.593 256.094 439.75C258.985 439.48 261.027 438.206 262.138 435.953C263.003 434.205 263.183 432.302 262.726 430.277C262.644 429.909 261.648 426.618 259.818 420.371V420.371ZM219.287 443.923C220.487 444.732 221.704 445.516 222.953 446.3C224.268 445.589 225.567 444.862 226.849 444.135C225.616 443.36 224.391 442.584 223.198 441.8C221.892 442.518 220.601 443.229 219.287 443.923V443.923ZM206.016 418.362C204.662 419.1 203.298 419.819 201.924 420.518C202.928 421.522 203.957 422.519 205.003 423.49C206.391 422.772 207.755 422.037 209.094 421.294C208.056 420.329 207.03 419.351 206.016 418.362V418.362ZM211.724 443.523C212.892 444.364 214.076 445.173 215.277 445.981C216.632 445.303 217.972 444.617 219.287 443.923C218.094 443.115 216.894 442.314 215.718 441.489C214.403 442.175 213.072 442.853 211.724 443.523V443.523ZM168.636 435.895C169.306 436.818 169.992 437.741 170.694 438.656C171.952 438.329 173.21 437.994 174.443 437.651C173.74 436.745 173.054 435.838 172.385 434.932C171.143 435.267 169.894 435.585 168.636 435.895V435.895ZM196.754 428.929C197.062 427.997 197.068 426.991 196.771 426.055C196.394 425.098 195.944 424.173 195.423 423.286C194.255 424.634 193.071 425.965 191.862 427.288C193.267 428.66 193.798 429.95 193.414 431.183C187.763 431.82 182.609 431.167 175.104 428.856C168.346 426.766 161.693 424.349 155.169 421.612L155.153 421.637L154.442 421.351C153.593 421.011 152.837 420.474 152.237 419.783C150.661 417.741 151.388 414.654 154.328 410.571C156.884 406.994 157.39 405.932 159.947 402.347C158.73 402.658 157.497 402.935 156.255 403.213C153.781 406.7 153.364 407.68 150.914 411.175C148.056 415.21 146.831 418.55 147.337 421.228C147.46 421.857 147.933 422.592 148.783 423.425C149.469 424.111 150.089 424.544 150.587 424.764C157.987 427.941 165.516 430.718 173.152 433.086C176.329 433.976 178.428 434.597 181.515 434.85C187.322 435.34 191.111 434.662 192.72 433.617C194.925 432.196 196.24 430.62 196.754 428.929V428.929ZM162.895 434.001C163.532 434.932 164.185 435.871 164.847 436.794C166.121 436.516 167.395 436.214 168.636 435.904C167.979 434.993 167.331 434.075 166.692 433.151C165.435 433.437 164.177 433.723 162.895 434.001V434.001Z" fill="#3B9D39" />
</svg>