<svg width="101" height="113" viewBox="0 0 101 113" fill="none" xmlns="http://www.w3.org/2000/svg">
    <g filter="url(#filter0_d_124_272)">
        <g filter="url(#filter1_d_124_272)">
            <path d="M9.82 90.7414C8.74933 90.7414 7.78133 90.5581 6.916 90.1914C6.06533 89.8248 5.39067 89.2968 4.892 88.6074C4.39333 87.9181 4.13667 87.1041 4.122 86.1654H7.422C7.466 86.7961 7.686 87.2948 8.082 87.6614C8.49267 88.0281 9.05 88.2114 9.754 88.2114C10.4727 88.2114 11.0373 88.0428 11.448 87.7054C11.8587 87.3534 12.064 86.8988 12.064 86.3414C12.064 85.8868 11.9247 85.5128 11.646 85.2194C11.3673 84.9261 11.0153 84.6988 10.59 84.5374C10.1793 84.3614 9.60733 84.1708 8.874 83.9654C7.87667 83.6721 7.06267 83.3861 6.432 83.1074C5.816 82.8141 5.28067 82.3814 4.826 81.8094C4.386 81.2228 4.166 80.4454 4.166 79.4774C4.166 78.5681 4.39333 77.7761 4.848 77.1014C5.30267 76.4268 5.94067 75.9134 6.762 75.5614C7.58333 75.1948 8.522 75.0114 9.578 75.0114C11.162 75.0114 12.4453 75.4001 13.428 76.1774C14.4253 76.9401 14.9753 78.0108 15.078 79.3894H11.69C11.6607 78.8614 11.4333 78.4288 11.008 78.0914C10.5973 77.7394 10.0473 77.5634 9.358 77.5634C8.75667 77.5634 8.27267 77.7174 7.906 78.0254C7.554 78.3334 7.378 78.7808 7.378 79.3674C7.378 79.7781 7.51 80.1228 7.774 80.4014C8.05267 80.6654 8.39 80.8854 8.786 81.0614C9.19667 81.2228 9.76867 81.4134 10.502 81.6334C11.4993 81.9268 12.3133 82.2201 12.944 82.5134C13.5747 82.8068 14.1173 83.2468 14.572 83.8334C15.0267 84.4201 15.254 85.1901 15.254 86.1434C15.254 86.9648 15.0413 87.7274 14.616 88.4314C14.1907 89.1354 13.5673 89.7001 12.746 90.1254C11.9247 90.5361 10.9493 90.7414 9.82 90.7414ZM25.1403 90.5874L21.0043 85.3954V90.5874H17.9243V74.3074H21.0043V83.5694L25.0963 78.3994H29.1003L23.7323 84.5154L29.1443 90.5874H25.1403Z" fill="white" />
        </g>
        <g filter="url(#filter2_d_124_272)">
            <path d="M75.272 78.636C76.724 78.636 77.8973 79.098 78.792 80.022C79.6867 80.9313 80.134 82.2073 80.134 83.85V91H77.054V84.268C77.054 83.3 76.812 82.5593 76.328 82.046C75.844 81.518 75.184 81.254 74.348 81.254C73.4973 81.254 72.8227 81.518 72.324 82.046C71.84 82.5593 71.598 83.3 71.598 84.268V91H68.518V78.812H71.598V80.33C72.0087 79.802 72.5293 79.3913 73.16 79.098C73.8053 78.79 74.5093 78.636 75.272 78.636ZM86.1429 80.704C86.5389 80.0587 87.0523 79.5527 87.6829 79.186C88.3283 78.8193 89.0616 78.636 89.8829 78.636V81.87H89.0689C88.1009 81.87 87.3676 82.0973 86.8689 82.552C86.3849 83.0067 86.1429 83.7987 86.1429 84.928V91H83.0629V78.812H86.1429V80.704Z" fill="white" />
        </g>
        <path d="M74.2863 67H23V67.3398H74.2863V67Z" fill="#3F3D56" />
        <path d="M21.9543 26.907C25.4508 26.907 28.2853 24.1914 28.2853 20.8415C28.2853 17.4916 25.4508 14.776 21.9543 14.776C18.4578 14.776 15.6233 17.4916 15.6233 20.8415C15.6233 24.1914 18.4578 26.907 21.9543 26.907Z" fill="white" />
        <path d="M19.7555 23.5704C19.7446 23.5704 19.7338 23.5703 19.7229 23.5701H16.32C15.8882 23.5636 15.4764 23.3947 15.1734 23.0999C14.8704 22.8051 14.7005 22.408 14.7003 21.9943C14.7001 21.5805 14.8697 21.1833 15.1725 20.8883C15.4752 20.5933 15.8869 20.4241 16.3186 20.4172H19.7244C19.7411 20.4169 19.7593 20.4169 19.7773 20.4172C20.2117 20.4229 20.626 20.593 20.9301 20.8903C21.2341 21.1876 21.4031 21.588 21.4002 22.0042C21.3974 22.4204 21.2228 22.8186 20.9147 23.112C20.6066 23.4054 20.1899 23.5702 19.7555 23.5704V23.5704Z" fill="#4F73B8" />
        <path d="M26.7335 37.9598C26.6932 37.8997 26.6598 37.8357 26.6338 37.7689L25.8166 35.6722C25.7215 35.4273 25.7317 35.1563 25.8449 34.9185C25.9581 34.6808 26.1651 34.4958 26.4205 34.404L44.6605 27.8788C44.9161 27.7876 45.199 27.7973 45.4472 27.9058C45.6953 28.0142 45.8884 28.2126 45.9841 28.4573L46.8013 30.554C46.8485 30.6753 46.8704 30.8043 46.8656 30.9336C46.8609 31.063 46.8295 31.1902 46.7735 31.3079C46.7174 31.4257 46.6376 31.5317 46.5388 31.6199C46.4399 31.7082 46.3239 31.7769 46.1974 31.8222L27.9575 38.3474C27.7379 38.4259 27.4969 38.4303 27.2744 38.3598C27.0518 38.2893 26.861 38.1482 26.7335 37.9598V37.9598Z" fill="#4F73B8" />
        <path d="M44.6024 27.337L37.1851 30.1707C36.9514 30.238 36.7537 30.389 36.6331 30.5923C36.5125 30.7956 36.4782 31.0356 36.5373 31.2624L37.3981 34.5644C37.4321 34.6948 37.4959 34.8164 37.5848 34.9204C37.6737 35.0244 37.7856 35.1082 37.9123 35.1659C38.0391 35.2235 38.1777 35.2535 38.318 35.2537C38.4583 35.2539 38.5969 35.2244 38.7239 35.1671L46.1616 31.813C46.3972 31.7283 46.5882 31.5576 46.6928 31.3383C46.7973 31.119 46.8069 30.8689 46.7194 30.6429L45.8254 27.8716C45.737 27.6454 45.5586 27.4622 45.3293 27.3619C45.1 27.2617 44.8386 27.2527 44.6024 27.337V27.337Z" fill="#2F2E41" />
        <path d="M58.1763 47.9085C57.9435 47.9341 57.7085 47.8828 57.5101 47.7631C57.3118 47.6435 57.162 47.4626 57.0855 47.2503L50.7364 29.6165C50.6924 29.4941 50.6739 29.3646 50.6821 29.2354C50.6902 29.1062 50.7249 28.9798 50.784 28.8635C50.8432 28.7471 50.9257 28.643 51.0268 28.5572C51.128 28.4714 51.2457 28.4055 51.3735 28.3633L53.5819 27.6334C53.8398 27.5483 54.1224 27.5649 54.3676 27.6793C54.6129 27.7938 54.8007 27.9968 54.8898 28.2438L61.2389 45.8778C61.3276 46.1249 61.3103 46.3956 61.1908 46.6305C61.0714 46.8655 60.8596 47.0454 60.6018 47.1309L58.3935 47.8607C58.3231 47.884 58.2503 47.9 58.1763 47.9085V47.9085Z" fill="#4F73B8" />
        <path d="M55.363 27.942L57.7998 35.2275C57.8942 35.4431 57.8984 35.6853 57.8114 35.9038C57.7245 36.1223 57.553 36.3003 57.3327 36.4009L54.126 37.8653C53.9994 37.9231 53.8609 37.9533 53.7205 37.9538C53.5802 37.9542 53.4415 37.9249 53.3145 37.8678C53.1874 37.8108 53.0751 37.7275 52.9857 37.6239C52.8962 37.5203 52.8319 37.399 52.7972 37.2687L50.7665 29.6371C50.6848 29.409 50.7007 29.1592 50.8109 28.9424C50.921 28.7256 51.1162 28.5594 51.354 28.4803L54.1545 27.3781C54.3928 27.2996 54.6539 27.3148 54.8805 27.4206C55.1071 27.5263 55.2806 27.7138 55.363 27.942V27.942Z" fill="#2F2E41" />
        <path d="M47.9851 66.8123H45.649C45.3763 66.812 45.1148 66.708 44.9219 66.5232C44.729 66.3385 44.6206 66.0879 44.6202 65.8266V47.1729C44.6206 46.9116 44.729 46.6611 44.9219 46.4763C45.1148 46.2915 45.3763 46.1876 45.649 46.1873H47.9851C48.2578 46.1876 48.5193 46.2915 48.7122 46.4763C48.905 46.6611 49.0135 46.9116 49.0138 47.1729V65.8266C49.0135 66.0879 48.905 66.3385 48.7122 66.5232C48.5193 66.708 48.2578 66.812 47.9851 66.8123Z" fill="#2F2E41" />
        <path d="M52.6055 66.8123H50.2694C49.9966 66.812 49.7351 66.708 49.5423 66.5232C49.3494 66.3385 49.2409 66.0879 49.2406 65.8266V47.1729C49.2409 46.9116 49.3494 46.6611 49.5423 46.4763C49.7351 46.2915 49.9966 46.1876 50.2694 46.1873H52.6055C52.8782 46.1876 53.1397 46.2915 53.3326 46.4763C53.5255 46.6611 53.634 46.9116 53.6343 47.1729V65.8266C53.634 66.0879 53.5255 66.3385 53.3326 66.5232C53.1397 66.708 52.8782 66.812 52.6055 66.8123Z" fill="#2F2E41" />
        <path d="M54.5307 49.3659H43.9164C43.6227 49.3656 43.341 49.2537 43.1333 49.0547C42.9256 48.8557 42.8088 48.5859 42.8085 48.3045V31.7844C42.8085 30.1543 43.4843 28.5911 44.6874 27.4385C45.8905 26.2858 47.5222 25.6383 49.2236 25.6383C50.9249 25.6383 52.5566 26.2858 53.7597 27.4385C54.9628 28.5911 55.6386 30.1543 55.6386 31.7844V48.3045C55.6383 48.5859 55.5215 48.8557 55.3138 49.0547C55.1061 49.2537 54.8244 49.3656 54.5307 49.3659Z" fill="#CCCCCC" />
        <path d="M56.1283 53.407H50.7469V24.269L50.8469 24.2952C52.3625 24.6938 53.6998 25.5576 54.6537 26.7542C55.6077 27.9508 56.1257 29.4141 56.1283 30.9199V53.407Z" fill="#2F2E41" />
        <path d="M47.2626 53.407H41.8812V30.9199C41.8838 29.4141 42.4019 27.9508 43.3558 26.7542C44.3098 25.5576 45.6471 24.6938 47.1626 24.2952L47.2626 24.269V53.407Z" fill="#2F2E41" />
        <path d="M49.1432 22.2211C53.8215 22.2211 57.614 18.5877 57.614 14.1056C57.614 9.6235 53.8215 5.99005 49.1432 5.99005C44.465 5.99005 40.6725 9.6235 40.6725 14.1056C40.6725 18.5877 44.465 22.2211 49.1432 22.2211Z" fill="#4F73B8" />
        <path d="M58.72 12.2371C58.72 12.2371 59.1948 -0.348801 53.0221 3.74542C53.0221 3.74542 49.4609 -7.70324 40.7558 9.43184L38.2234 11.8581C38.2234 11.8581 49.6192 10.3417 60.2236 15.0424L58.72 12.2371Z" fill="#2F2E41" />
        <path d="M49.2724 18.1247C48.7492 18.1108 48.098 18.0934 47.5963 17.7423C47.4469 17.6334 47.3241 17.4946 47.2366 17.3355C47.1492 17.1765 47.099 17.001 47.0898 16.8214C47.0807 16.6938 47.1026 16.5659 47.1536 16.4477C47.2047 16.3295 47.2836 16.2242 47.3842 16.1401C47.6462 15.9279 48.0289 15.8782 48.4412 15.9943L48.014 13.0031L48.3276 12.962L48.8298 16.4785L48.568 16.3633C48.2643 16.2299 47.8475 16.162 47.5886 16.3717C47.525 16.4265 47.4754 16.4946 47.4438 16.5708C47.4121 16.6469 47.3992 16.729 47.4061 16.8107C47.4138 16.9444 47.4514 17.0749 47.5165 17.1934C47.5815 17.3119 47.6724 17.4155 47.783 17.4973C48.1734 17.7706 48.6925 17.8058 49.2812 17.8216L49.2724 18.1247Z" fill="#2F2E41" />
        <path d="M46.463 13.2611H44.7582V13.5644H46.463V13.2611Z" fill="#2F2E41" />
        <path d="M51.8444 13.2611H50.1395V13.5644H51.8444V13.2611Z" fill="#2F2E41" />
        <path d="M30.2569 38.7334C30.0284 38.835 29.7672 38.8454 29.5307 38.7625C29.2942 38.6795 29.1018 38.5099 28.9958 38.291L23.5336 27.0116C23.4276 26.7927 23.4168 26.5425 23.5034 26.3159C23.59 26.0893 23.767 25.905 23.9954 25.8035C24.2239 25.7019 24.4851 25.6915 24.7215 25.7744C24.958 25.8574 25.1505 26.0269 25.2565 26.2458L30.7187 37.5252C30.8247 37.7441 30.8356 37.9944 30.749 38.2209C30.6624 38.4475 30.4854 38.6319 30.2569 38.7334Z" fill="#3F3D56" />
        <path d="M24.6449 26.5965C24.477 26.5965 24.316 26.5326 24.1972 26.4189C24.0785 26.3051 24.0118 26.1509 24.0118 25.99V18.2636H16.0981C15.9302 18.2636 15.7691 18.1997 15.6504 18.086C15.5317 17.9722 15.465 17.818 15.465 17.6571C15.465 17.4962 15.5317 17.3419 15.6504 17.2282C15.7691 17.1144 15.9302 17.0505 16.0981 17.0505H24.6449C24.8128 17.0505 24.9739 17.1144 25.0926 17.2282C25.2113 17.3419 25.278 17.4962 25.278 17.6571V25.99C25.278 26.1509 25.2113 26.3051 25.0926 26.4189C24.9739 26.5326 24.8128 26.5965 24.6449 26.5965V26.5965Z" fill="#4F73B8" />
        <path d="M24.7946 27.454C23.4316 28.0599 21.9116 28.2649 20.427 28.0431C18.9423 27.8214 17.5597 27.1828 16.4538 26.2082C15.3479 25.2336 14.5686 23.9667 14.2142 22.5677C13.8599 21.1688 13.9466 19.7005 14.4632 18.3487C14.9798 16.9969 15.9033 15.8223 17.1167 14.9733C18.3302 14.1243 19.7792 13.6391 21.2805 13.5791C22.7818 13.5191 24.2679 13.8869 25.551 14.6361C26.834 15.3853 27.8564 16.4822 28.4888 17.7881C29.3344 19.5395 29.4204 21.5408 28.7279 23.3529C28.0353 25.1649 26.6208 26.6399 24.7946 27.454V27.454ZM19.1991 15.8994C18.1769 16.3538 17.3182 17.0885 16.7317 18.0104C16.1452 18.9324 15.8573 20.0002 15.9043 21.079C15.9512 22.1577 16.331 23.1989 16.9957 24.0708C17.6603 24.9428 18.5798 25.6063 19.6381 25.9775C20.6963 26.3488 21.8457 26.411 22.9408 26.1564C24.036 25.9018 25.0277 25.3418 25.7907 24.5472C26.5536 23.7526 27.0535 22.759 27.2271 21.6922C27.4007 20.6254 27.2402 19.5333 26.7659 18.5539C26.1286 17.2417 24.974 16.2253 23.5554 15.7276C22.1369 15.23 20.5702 15.2918 19.1991 15.8994V15.8994Z" fill="#3F3D56" />
    </g>
    <g filter="url(#filter3_d_124_272)">
        <rect x="34" y="69" width="30" height="31" rx="6" fill="#4F73B8" />
        <path d="M59.7926 70.39L59.7926 70.39C59.1094 70.132 58.1042 69.8359 56.2956 69.7557C54.3863 69.671 53.8083 69.6532 49 69.6532C44.1917 69.6532 43.6136 69.671 41.7042 69.7557C39.8958 69.8359 38.8906 70.132 38.2074 70.39L38.2074 70.39C37.3045 70.7312 36.646 71.1471 35.9659 71.8083C35.2857 72.4696 34.8561 73.1116 34.5037 73.9934C34.2369 74.6608 33.9314 75.6421 33.8487 77.4051C33.7615 79.2623 33.7432 79.8251 33.7432 84.5C33.7432 89.175 33.7615 89.7377 33.8487 91.595C33.9314 93.3579 34.2369 94.3393 34.5037 95.0066C34.8561 95.8885 35.2857 96.5304 35.9659 97.1917C36.646 97.853 37.3045 98.2689 38.2074 98.61C38.8905 98.8681 39.8958 99.1641 41.7043 99.2444C43.6133 99.3291 44.1914 99.3469 49 99.3469C53.8086 99.3469 54.3866 99.3291 56.2956 99.2444C58.1042 99.1641 59.1094 98.8681 59.7926 98.61C60.6954 98.2689 61.3539 97.853 62.0341 97.1917C62.7143 96.5304 63.1438 95.8885 63.4962 95.0066C63.763 94.3393 64.0685 93.3579 64.1513 91.5949C64.2384 89.7377 64.2567 89.175 64.2567 84.5C64.2567 79.8251 64.2384 79.2623 64.1513 77.4051C64.0685 75.6421 63.763 74.6608 63.4963 73.9934C63.1438 73.1116 62.7143 72.4696 62.0341 71.8083C61.3539 71.1471 60.6954 70.7312 59.7926 70.39ZM37.386 68.3865L37.386 68.3865C38.4754 67.9748 39.7308 67.6878 41.6008 67.6048C43.5096 67.5201 44.1138 67.5 49 67.5C53.8861 67.5 54.4904 67.5201 56.3991 67.6048C58.2691 67.6878 59.5245 67.9748 60.614 68.3865L60.7684 67.9776L60.614 68.3865C61.7388 68.8115 62.6827 69.3745 63.6303 70.2957C64.5777 71.2168 65.1551 72.1328 65.5907 73.2224L66.0411 73.0424L65.5907 73.2224C66.0126 74.278 66.3071 75.4944 66.3922 77.3083C66.4793 79.163 66.5 79.7498 66.5 84.5C66.5 89.2503 66.4793 89.837 66.3922 91.6918C66.3071 93.5057 66.0126 94.7221 65.5907 95.7776L66.055 95.9632L65.5907 95.7776C65.1551 96.8673 64.5777 97.7832 63.6303 98.7043C62.6827 99.6256 61.7388 100.189 60.614 100.614L60.7907 101.081L60.614 100.614C59.5245 101.025 58.2691 101.312 56.3991 101.395C54.4904 101.48 53.8861 101.5 49 101.5C44.1138 101.5 43.5096 101.48 41.6008 101.395C39.7308 101.312 38.4754 101.025 37.386 100.614L37.2092 101.081L37.386 100.614C36.2611 100.189 35.3172 99.6256 34.3696 98.7043C33.4222 97.7832 32.8448 96.8672 32.4092 95.7776C31.9873 94.7221 31.6929 93.5057 31.6077 91.6918C31.5207 89.837 31.5 89.2503 31.5 84.5C31.5 79.7498 31.5207 79.163 31.6077 77.3083C31.6929 75.4944 31.9873 74.278 32.4092 73.2224L32.4092 73.2224C32.8448 72.1328 33.4222 71.2168 34.3696 70.2957C35.3172 69.3745 36.2611 68.8115 37.386 68.3865ZM40.2567 84.5C40.2567 79.8263 44.1578 76.0135 49 76.0135C53.8421 76.0135 57.7432 79.8263 57.7432 84.5C57.7432 89.1738 53.8421 92.9865 49 92.9865C44.1578 92.9865 40.2567 89.1738 40.2567 84.5ZM42.4999 84.5C42.4999 88.011 45.4235 90.8334 49 90.8334C52.5764 90.8334 55.5 88.011 55.5 84.5C55.5 80.9891 52.5764 78.1667 49 78.1667C45.4235 78.1667 42.4999 80.9891 42.4999 84.5ZM60.2684 75.1585C60.2684 76.029 59.5386 76.7585 58.6084 76.7585C57.6782 76.7585 56.9484 76.029 56.9484 75.1585C56.9484 74.288 57.6782 73.5585 58.6084 73.5585C59.5386 73.5585 60.2684 74.288 60.2684 75.1585Z" fill="#4F73B8" stroke="#2F2E41" />
    </g>
    <defs>
        <filter id="filter0_d_124_272" x="0.121948" y="0" width="93.761" height="99" filterUnits="userSpaceOnUse" color-interpolation-filters="sRGB">
            <feFlood flood-opacity="0" result="BackgroundImageFix" />
            <feColorMatrix in="SourceAlpha" type="matrix" values="0 0 0 0 0 0 0 0 0 0 0 0 0 0 0 0 0 0 127 0" result="hardAlpha" />
            <feOffset dy="4" />
            <feGaussianBlur stdDeviation="2" />
            <feComposite in2="hardAlpha" operator="out" />
            <feColorMatrix type="matrix" values="0 0 0 0 0 0 0 0 0 0 0 0 0 0 0 0 0 0 0.25 0" />
            <feBlend mode="normal" in2="BackgroundImageFix" result="effect1_dropShadow_124_272" />
            <feBlend mode="normal" in="SourceGraphic" in2="effect1_dropShadow_124_272" result="shape" />
        </filter>
        <filter id="filter1_d_124_272" x="0.121948" y="74.3074" width="33.0223" height="24.434" filterUnits="userSpaceOnUse" color-interpolation-filters="sRGB">
            <feFlood flood-opacity="0" result="BackgroundImageFix" />
            <feColorMatrix in="SourceAlpha" type="matrix" values="0 0 0 0 0 0 0 0 0 0 0 0 0 0 0 0 0 0 127 0" result="hardAlpha" />
            <feOffset dy="4" />
            <feGaussianBlur stdDeviation="2" />
            <feComposite in2="hardAlpha" operator="out" />
            <feColorMatrix type="matrix" values="0 0 0 0 0 0 0 0 0 0 0 0 0 0 0 0 0 0 0.25 0" />
            <feBlend mode="normal" in2="BackgroundImageFix" result="effect1_dropShadow_124_272" />
            <feBlend mode="normal" in="SourceGraphic" in2="effect1_dropShadow_124_272" result="shape" />
        </filter>
        <filter id="filter2_d_124_272" x="64.5179" y="78.636" width="29.365" height="20.364" filterUnits="userSpaceOnUse" color-interpolation-filters="sRGB">
            <feFlood flood-opacity="0" result="BackgroundImageFix" />
            <feColorMatrix in="SourceAlpha" type="matrix" values="0 0 0 0 0 0 0 0 0 0 0 0 0 0 0 0 0 0 127 0" result="hardAlpha" />
            <feOffset dy="4" />
            <feGaussianBlur stdDeviation="2" />
            <feComposite in2="hardAlpha" operator="out" />
            <feColorMatrix type="matrix" values="0 0 0 0 0 0 0 0 0 0 0 0 0 0 0 0 0 0 0.25 0" />
            <feBlend mode="normal" in2="BackgroundImageFix" result="effect1_dropShadow_124_272" />
            <feBlend mode="normal" in="SourceGraphic" in2="effect1_dropShadow_124_272" result="shape" />
        </filter>
        <filter id="filter3_d_124_272" x="27" y="67" width="44" height="43" filterUnits="userSpaceOnUse" color-interpolation-filters="sRGB">
            <feFlood flood-opacity="0" result="BackgroundImageFix" />
            <feColorMatrix in="SourceAlpha" type="matrix" values="0 0 0 0 0 0 0 0 0 0 0 0 0 0 0 0 0 0 127 0" result="hardAlpha" />
            <feOffset dy="4" />
            <feGaussianBlur stdDeviation="2" />
            <feComposite in2="hardAlpha" operator="out" />
            <feColorMatrix type="matrix" values="0 0 0 0 0 0 0 0 0 0 0 0 0 0 0 0 0 0 0.25 0" />
            <feBlend mode="normal" in2="BackgroundImageFix" result="effect1_dropShadow_124_272" />
            <feBlend mode="normal" in="SourceGraphic" in2="effect1_dropShadow_124_272" result="shape" />
        </filter>
    </defs>
</svg>