<svg width="20" height="20" viewBox="0 0 2500 2500" fill="none" xmlns="http://www.w3.org/2000/svg">
    <path d="M1250 2361.11C1863.65 2361.11 2361.11 1863.65 2361.11 1250C2361.11 636.35 1863.65 138.889 1250 138.889C636.35 138.889 138.889 636.35 138.889 1250C138.889 1863.65 636.35 2361.11 1250 2361.11Z" stroke="#FF1E10" stroke-width="277.778" stroke-miterlimit="10" />
    <path d="M937.5 1111.11C1033.38 1111.11 1111.11 1033.38 1111.11 937.5C1111.11 841.617 1033.38 763.889 937.5 763.889C841.617 763.889 763.889 841.617 763.889 937.5C763.889 1033.38 841.617 1111.11 937.5 1111.11Z" fill="#FF1E10" />
    <path d="M1562.5 1111.11C1658.38 1111.11 1736.11 1033.38 1736.11 937.5C1736.11 841.617 1658.38 763.889 1562.5 763.889C1466.62 763.889 1388.89 841.617 1388.89 937.5C1388.89 1033.38 1466.62 1111.11 1562.5 1111.11Z" fill="#FF1E10" />
    <path d="M833.333 1736.11C868.86 1654.75 927.022 1585.31 1000.89 1536.06C1074.76 1486.81 1161.23 1459.83 1250 1458.33C1338.77 1459.83 1425.24 1486.81 1499.11 1536.06C1572.98 1585.31 1631.14 1654.75 1666.67 1736.11" stroke="#FF1E10" stroke-width="277.778" stroke-miterlimit="10" />
</svg>