<svg width="180" height="200" viewBox="0 0 177 307" fill="none" xmlns="http://www.w3.org/2000/svg">
    <path d="M114.02 94.7672C113.006 94.061 111.85 93.5858 110.633 93.3749C109.415 93.164 108.166 93.2227 106.974 93.5466C105.782 93.8706 104.675 94.452 103.732 95.25C102.789 96.048 102.032 97.043 101.515 98.1651L82.2165 97.4205L78.9037 109.038L106.171 109.706C108.114 110.45 110.262 110.456 112.208 109.721C114.155 108.987 115.764 107.565 116.732 105.723C117.699 103.882 117.957 101.749 117.458 99.73C116.958 97.7107 115.735 95.9449 114.02 94.7672H114.02Z" fill="#FFB6B6" />
    <path d="M98.5147 111.159L78.8448 113.629L76.3545 113.939L36.3345 118.959C36.3345 118.959 24.0548 110.109 13.1348 100.759V90.9994C13.1269 81.422 16.599 72.1679 22.9048 64.9594C37.6846 72.1294 48.0049 88.9393 48.0049 88.9393L73.5948 91.4393L76.1548 91.6893L92.0547 93.2393L98.5147 111.159Z" fill="#E4E4E4" />
    <path d="M16.7499 189.527H53.7518C53.7518 191.113 94.1998 192.399 94.1998 192.399C95.092 193.071 95.9053 193.842 96.6238 194.697C98.783 197.272 99.9632 200.528 99.956 203.888V206.186C99.9546 209.994 98.4411 213.646 95.7482 216.339C93.0553 219.032 89.4033 220.546 85.595 220.547H16.7499C12.9421 220.544 9.29125 219.03 6.59875 216.337C3.90626 213.645 2.39217 209.994 2.38885 206.186V203.888C2.39414 200.081 3.90889 196.431 6.60095 193.739C9.29302 191.047 12.9427 189.532 16.7499 189.527V189.527Z" fill="#3F3D56" />
    <path d="M58.5929 219.976H43.6575V306.185H58.5929V219.976Z" fill="#3F3D56" />
    <path d="M101.102 305.66C101.102 307.274 78.4692 306.284 50.5508 306.284C22.6323 306.284 0 307.274 0 305.66C0 304.046 22.6323 291.249 50.5508 291.249C78.4692 291.249 101.102 304.046 101.102 305.66Z" fill="#3F3D56" />
    <path d="M111.135 295.809H122.25L127.538 252.935H111.133L111.135 295.809Z" fill="#FFB6B6" />
    <path d="M108.299 292.18L130.19 292.18H130.191C133.89 292.18 137.439 293.65 140.055 296.266C142.671 298.882 144.141 302.43 144.141 306.13V306.583L108.3 306.584L108.299 292.18Z" fill="#2F2E41" />
    <path d="M143.987 295.809H155.103L160.391 252.935H143.986L143.987 295.809Z" fill="#FFB6B6" />
    <path d="M141.152 292.18L163.043 292.18H163.043C166.743 292.18 170.291 293.65 172.908 296.266C175.524 298.882 176.994 302.43 176.994 306.13V306.583L141.153 306.584L141.152 292.18Z" fill="#2F2E41" />
    <path d="M50.7146 48.9774C61.3886 48.9774 70.0415 40.3245 70.0415 29.6505C70.0415 18.9766 61.3886 10.3236 50.7146 10.3236C40.0407 10.3236 31.3878 18.9766 31.3878 29.6505C31.3878 40.3245 40.0407 48.9774 50.7146 48.9774Z" fill="#FFB6B6" />
    <path d="M52.8944 20.4327C52.8944 20.4327 59.7689 10.8769 66.1724 20.4369C72.5758 29.997 78.9084 18.4002 77.4371 14.7573C75.9658 11.1145 76.3534 10.6754 65.6861 5.94474C55.0188 1.21403 34.5108 -8.29881 28.5102 15.3102C22.5096 38.9192 34.7877 39.3652 34.7877 39.3652C34.7877 39.3652 37.2929 16.4237 40.1841 22.8828L43.0753 29.3418L46.0457 30.4019L52.8944 20.4327Z" fill="#2F2E41" />
    <path d="M13.1364 162.071C13.1364 162.071 6.65166 196.361 31.3251 200.728C55.9986 205.094 91.6153 208.163 91.6153 208.163L107.61 282.787L129.098 280.868C129.098 280.868 126.24 191.039 119.212 184.011C112.184 176.983 67.7646 155.939 67.7646 155.939L13.1364 162.071Z" fill="#2F2E41" />
    <path d="M61.3254 147.7L72.1164 158.525C72.1164 158.525 150.034 171.075 153.04 189.072C157.578 216.242 162.938 275.325 162.938 275.325L139.511 273.568L130.325 206.406L92.8424 197.88L50.1978 174.64L61.3254 147.7Z" fill="#2F2E41" />
    <path d="M70.7647 156.939C70.7647 156.939 10.5747 180.519 11.8946 166.649C13.4248 150.579 13.1348 143.579 13.1348 143.579V90.9994C13.1371 83.8158 15.0925 76.768 18.7915 70.61C22.4905 64.4521 27.7941 59.4155 34.1348 56.0394L54.4546 56.3794L60.7246 64.6894C65.7646 89.9394 66.7646 92.9394 66.7646 92.9394L70.9648 104.439L71.8447 111.629L68.7646 126.939L70.7647 156.939Z" fill="#E4E4E4" />
    <path d="M120.192 94.8233L120.074 94.7866L122.05 88.4282C122.682 86.3958 122.355 84.4873 121.32 84.1655L114.458 82.0325C113.422 81.7107 112.071 83.0975 111.439 85.1299L100.596 120.012C99.9647 122.045 100.292 123.953 101.327 124.275L108.189 126.408C109.224 126.73 110.576 125.343 111.208 123.311L118.667 99.3126L118.785 99.3494L120.192 94.8233Z" fill="#626262" />
    <path d="M121.192 95.8233L121.074 95.7866L123.05 89.4282C123.682 87.3958 123.355 85.4873 122.32 85.1655L115.458 83.0325C114.422 82.7107 113.071 84.0975 112.439 86.1299L101.596 121.012C100.965 123.045 101.292 124.953 102.327 125.275L109.189 127.408C110.224 127.73 111.576 126.343 112.208 124.311L119.667 100.313L119.785 100.349L121.192 95.8233Z" fill="#3F3D56" />
    <path d="M116.728 95.3101C117.115 94.0652 116.914 92.8961 116.28 92.699C115.646 92.5019 114.818 93.3513 114.431 94.5963C114.044 95.8412 114.245 97.0103 114.879 97.2074C115.513 97.4045 116.341 96.5551 116.728 95.3101Z" fill="#D0CDE1" />
    <path d="M118.39 109.767C117.376 109.061 116.22 108.586 115.003 108.375C113.785 108.164 112.537 108.223 111.344 108.547C110.152 108.871 109.045 109.452 108.102 110.25C107.159 111.048 106.402 112.043 105.885 113.165L86.5866 112.421L83.2738 124.038L110.541 124.706C112.484 125.45 114.632 125.456 116.578 124.721C118.525 123.987 120.134 122.565 121.102 120.723C122.069 118.882 122.328 116.749 121.828 114.73C121.328 112.711 120.105 110.945 118.39 109.767H118.39Z" fill="#FFB6B6" />
    <path d="M102.885 126.159L80.7246 128.939L40.7047 133.959C40.7047 133.959 24.8345 122.519 13.1348 111.909V90.9994C13.1335 86.1481 14.025 81.338 15.7647 76.8094C36.4049 77.9394 52.3746 103.939 52.3746 103.939L77.9649 106.439L96.4249 108.239L102.885 126.159Z" fill="#E4E4E4" />
</svg>