<svg width="135" height="135" viewBox="0 0 135 135" fill="none" xmlns="http://www.w3.org/2000/svg">
    <g clip-path="url(#clip0_124_234)">
        <path d="M12.9824 113.726L11.7934 109.051C9.68535 108.16 7.52855 107.388 5.33332 106.74L5.18325 108.912L4.57462 106.519C1.85214 105.743 0 105.401 0 105.401C0 105.401 2.50118 114.886 7.74895 122.138L13.8631 123.209L9.11318 123.891C9.77329 124.683 10.4827 125.433 11.2372 126.136C18.8703 133.2 27.3724 136.441 30.2268 133.375C33.0812 130.309 29.2073 122.097 21.5741 115.034C19.2078 112.844 16.2352 111.086 13.2595 109.703L12.9824 113.726Z" fill="#F2F2F2" />
        <path d="M24.2895 108.648L25.6956 104.033C24.3529 102.184 22.9067 100.412 21.3639 98.7252L20.1089 100.508L20.8288 98.145C18.9002 96.0785 17.4917 94.8318 17.4917 94.8318C17.4917 94.8318 14.716 104.241 15.4482 113.152L20.1271 117.22L15.7061 115.357C15.8608 116.375 16.0796 117.382 16.3611 118.373C19.2332 128.354 24.8309 135.51 28.864 134.357C32.897 133.203 33.8384 124.177 30.9664 114.196C30.0761 111.101 28.4424 108.065 26.6124 105.348L24.2895 108.648Z" fill="#F2F2F2" />
        <path d="M94.2023 31.9816H93.4607V11.7246C93.4607 10.1849 93.1565 8.66031 92.5655 7.23781C91.9746 5.81531 91.1083 4.5228 90.0163 3.43407C88.9244 2.34533 87.628 1.4817 86.2012 0.892484C84.7745 0.303266 83.2453 0 81.701 0H38.654C35.5351 0 32.544 1.23527 30.3386 3.43407C28.1333 5.63286 26.8943 8.61507 26.8943 11.7246V122.858C26.8943 124.397 27.1985 125.922 27.7894 127.345C28.3804 128.767 29.2466 130.06 30.3386 131.148C31.4306 132.237 32.727 133.101 34.1538 133.69C35.5805 134.279 37.1097 134.582 38.654 134.582H81.701C84.8198 134.582 87.8109 133.347 90.0162 131.148C92.2216 128.949 93.4605 125.967 93.4605 122.858V46.4009H94.2022L94.2023 31.9816Z" fill="#E6E6E6" />
        <path d="M82.1755 3.04921H76.5569C76.8153 3.68088 76.914 4.36622 76.8441 5.04484C76.7743 5.72347 76.5381 6.37456 76.1564 6.94075C75.7747 7.50693 75.2593 7.97084 74.6554 8.29159C74.0515 8.61234 73.3777 8.78009 72.6935 8.78006H48.0324C47.3482 8.78003 46.6745 8.61223 46.0707 8.29146C45.4668 7.97068 44.9514 7.50677 44.5697 6.9406C44.1881 6.37442 43.9519 5.72335 43.8821 5.04476C43.8123 4.36616 43.9109 3.68085 44.1693 3.04921H38.9212C36.5921 3.04921 34.3583 3.9717 32.7114 5.61374C31.0644 7.25578 30.1392 9.48286 30.1392 11.8051V122.777C30.1392 125.099 31.0644 127.326 32.7114 128.968C34.3583 130.61 36.5921 131.533 38.9212 131.533H82.1755C84.5047 131.533 86.7384 130.61 88.3854 128.968C90.0323 127.326 90.9576 125.099 90.9576 122.777V122.777V11.8049C90.9575 9.48271 90.0323 7.25567 88.3853 5.61367C86.7384 3.97167 84.5046 3.04921 82.1755 3.04921V3.04921Z" fill="white" />
        <path d="M55.0366 47.2547C55.0364 46.479 55.2412 45.717 55.6304 45.0453C56.0195 44.3736 56.5792 43.8159 57.2532 43.4285C56.5795 43.0406 55.8153 42.8363 55.0374 42.8362C54.2595 42.8361 53.4952 43.0402 52.8215 43.428C52.1477 43.8157 51.5882 44.3735 51.1992 45.0452C50.8103 45.7169 50.6055 46.4788 50.6055 47.2544C50.6055 48.03 50.8103 48.792 51.1992 49.4637C51.5882 50.1354 52.1477 50.6931 52.8215 51.0809C53.4952 51.4686 54.2595 51.6727 55.0374 51.6726C55.8153 51.6726 56.5795 51.4683 57.2532 51.0804C56.5792 50.693 56.0195 50.1354 55.6304 49.4638C55.2413 48.7922 55.0365 48.0303 55.0366 47.2547V47.2547Z" fill="#CCCCCC" />
        <path d="M60.6074 47.2547C60.6072 46.479 60.812 45.717 61.2011 45.0453C61.5903 44.3736 62.15 43.8159 62.824 43.4285C62.1504 43.0406 61.3861 42.8363 60.6082 42.8362C59.8303 42.8361 59.066 43.0402 58.3923 43.428C57.7185 43.8157 57.159 44.3735 56.7701 45.0452C56.3811 45.7169 56.1763 46.4788 56.1763 47.2544C56.1763 48.03 56.3811 48.792 56.7701 49.4637C57.159 50.1354 57.7185 50.6931 58.3923 51.0809C59.066 51.4686 59.8303 51.6727 60.6082 51.6726C61.3861 51.6726 62.1504 51.4683 62.824 51.0804C62.1501 50.693 61.5904 50.1354 61.2012 49.4638C60.8121 48.7922 60.6073 48.0303 60.6074 47.2547V47.2547Z" fill="#CCCCCC" />
        <path d="M66.0518 51.6728C68.4992 51.6728 70.4832 49.6946 70.4832 47.2545C70.4832 44.8144 68.4992 42.8363 66.0518 42.8363C63.6044 42.8363 61.6204 44.8144 61.6204 47.2545C61.6204 49.6946 63.6044 51.6728 66.0518 51.6728Z" fill="#6C63FF" />
        <path d="M73.458 61.0544H47.6306C47.3847 61.0541 47.1489 60.9566 46.9751 60.7832C46.8012 60.6099 46.7034 60.3749 46.7031 60.1297V34.3793C46.7034 34.1342 46.8012 33.8992 46.9751 33.7258C47.1489 33.5525 47.3847 33.455 47.6306 33.4547H73.458C73.7038 33.455 73.9396 33.5525 74.1134 33.7258C74.2873 33.8992 74.3851 34.1342 74.3854 34.3793V60.1297C74.3851 60.3749 74.2873 60.6099 74.1134 60.7832C73.9396 60.9566 73.7038 61.0541 73.458 61.0544V61.0544ZM47.6306 33.8248C47.483 33.8249 47.3416 33.8834 47.2373 33.9874C47.1329 34.0914 47.0743 34.2324 47.0741 34.3795V60.1299C47.0743 60.277 47.1329 60.418 47.2373 60.522C47.3416 60.626 47.483 60.6845 47.6306 60.6846H73.458C73.6055 60.6845 73.7469 60.626 73.8513 60.522C73.9556 60.418 74.0142 60.277 74.0144 60.1299V34.3795C74.0142 34.2324 73.9556 34.0914 73.8513 33.9874C73.7469 33.8834 73.6055 33.8249 73.458 33.8248H47.6306Z" fill="#CCCCCC" />
        <path d="M79.2247 80.7932H39.6133V81.1631H79.2247V80.7932Z" fill="#CCCCCC" />
        <path d="M40.8642 78.4838C41.5551 78.4838 42.1152 77.9254 42.1152 77.2366C42.1152 76.5478 41.5551 75.9894 40.8642 75.9894C40.1733 75.9894 39.6133 76.5478 39.6133 77.2366C39.6133 77.9254 40.1733 78.4838 40.8642 78.4838Z" fill="#6C63FF" />
        <path d="M79.2247 93.2647H39.6133V93.6346H79.2247V93.2647Z" fill="#CCCCCC" />
        <path d="M40.8642 90.9555C41.5551 90.9555 42.1152 90.3971 42.1152 89.7083C42.1152 89.0195 41.5551 88.4611 40.8642 88.4611C40.1733 88.4611 39.6133 89.0195 39.6133 89.7083C39.6133 90.3971 40.1733 90.9555 40.8642 90.9555Z" fill="#6C63FF" />
        <path d="M78.4999 107.467H65.9816C65.7654 107.466 65.5581 107.381 65.4052 107.228C65.2523 107.076 65.1663 106.869 65.166 106.654V102.279C65.1663 102.063 65.2523 101.857 65.4052 101.704C65.5581 101.552 65.7654 101.466 65.9816 101.466H78.4999C78.7162 101.466 78.9235 101.552 79.0764 101.704C79.2293 101.857 79.3153 102.063 79.3155 102.279V106.654C79.3153 106.869 79.2293 107.076 79.0764 107.228C78.9235 107.381 78.7162 107.466 78.4999 107.467V107.467Z" fill="#6C63FF" />
        <path d="M44.9448 78.4838C45.6357 78.4838 46.1958 77.9254 46.1958 77.2366C46.1958 76.5478 45.6357 75.9894 44.9448 75.9894C44.2539 75.9894 43.6938 76.5478 43.6938 77.2366C43.6938 77.9254 44.2539 78.4838 44.9448 78.4838Z" fill="#6C63FF" />
        <path d="M49.0254 78.4838C49.7162 78.4838 50.2763 77.9254 50.2763 77.2366C50.2763 76.5478 49.7162 75.9894 49.0254 75.9894C48.3345 75.9894 47.7744 76.5478 47.7744 77.2366C47.7744 77.9254 48.3345 78.4838 49.0254 78.4838Z" fill="#6C63FF" />
        <path d="M44.9448 90.9555C45.6357 90.9555 46.1958 90.3971 46.1958 89.7083C46.1958 89.0195 45.6357 88.4611 44.9448 88.4611C44.2539 88.4611 43.6938 89.0195 43.6938 89.7083C43.6938 90.3971 44.2539 90.9555 44.9448 90.9555Z" fill="#6C63FF" />
        <path d="M49.0254 90.9555C49.7162 90.9555 50.2763 90.3971 50.2763 89.7083C50.2763 89.0195 49.7162 88.4611 49.0254 88.4611C48.3345 88.4611 47.7744 89.0195 47.7744 89.7083C47.7744 90.3971 48.3345 90.9555 49.0254 90.9555Z" fill="#6C63FF" />
        <path d="M134.496 135H4.36433C4.08576 135 3.86011 134.901 3.86011 134.78C3.86011 134.658 4.08576 134.56 4.36433 134.56H134.496C134.774 134.56 135 134.658 135 134.78C135 134.902 134.774 135 134.496 135Z" fill="#3F3D56" />
        <path d="M102.345 88.4478C102.434 88.4883 102.519 88.5359 102.6 88.59L110.73 85.1308L111.02 82.9957L114.268 82.9759L114.076 87.8727L103.346 90.7017C103.324 90.7761 103.297 90.849 103.265 90.9201C103.11 91.2501 102.861 91.5271 102.548 91.7162C102.236 91.9053 101.874 91.9982 101.509 91.9831C101.144 91.968 100.791 91.8457 100.495 91.6315C100.2 91.4172 99.9739 91.1206 99.8467 90.779C99.7195 90.4373 99.6963 90.0657 99.7802 89.711C99.8641 89.3562 100.051 89.0341 100.318 88.785C100.585 88.536 100.92 88.3711 101.28 88.3111C101.641 88.2511 102.011 88.2986 102.345 88.4478V88.4478Z" fill="#FFB8B8" />
        <path d="M115.449 132.821H113.227L112.17 124.276L115.45 124.276L115.449 132.821Z" fill="#FFB8B8" />
        <path d="M111.64 132.188H115.926V134.878H108.942C108.942 134.165 109.226 133.481 109.732 132.976C110.238 132.472 110.925 132.188 111.64 132.188Z" fill="#2F2E41" />
        <path d="M124.091 132.195L121.88 132.413L119.987 124.012L123.251 123.692L124.091 132.195Z" fill="#FFB8B8" />
        <path d="M120.238 131.938L124.503 131.519L124.767 134.196L117.817 134.879C117.783 134.527 117.818 134.172 117.921 133.834C118.023 133.496 118.192 133.182 118.417 132.908C118.642 132.635 118.918 132.409 119.231 132.243C119.543 132.076 119.886 131.972 120.238 131.938Z" fill="#2F2E41" />
        <path d="M116.068 73.9324C118.527 73.9324 120.52 71.9453 120.52 69.4941C120.52 67.0429 118.527 65.0558 116.068 65.0558C113.609 65.0558 111.616 67.0429 111.616 69.4941C111.616 71.9453 113.609 73.9324 116.068 73.9324Z" fill="#FFB8B8" />
        <path d="M112.731 131.093C112.54 131.094 112.355 131.027 112.208 130.905C112.062 130.783 111.964 130.613 111.931 130.425C110.781 124.06 107.021 103.246 106.931 102.67C106.929 102.657 106.928 102.643 106.928 102.63V101.078C106.928 101.021 106.946 100.966 106.979 100.92L107.476 100.227C107.499 100.193 107.53 100.166 107.566 100.146C107.602 100.127 107.642 100.116 107.683 100.114C110.514 99.9815 119.787 99.5936 120.235 100.152C120.685 100.712 120.526 102.412 120.49 102.747L120.491 102.782L124.657 129.344C124.69 129.556 124.638 129.772 124.512 129.946C124.386 130.119 124.196 130.237 123.984 130.272L121.382 130.699C121.188 130.73 120.99 130.691 120.823 130.589C120.655 130.486 120.531 130.327 120.471 130.141C119.666 127.577 116.968 118.952 116.033 115.614C116.027 115.593 116.014 115.575 115.995 115.563C115.977 115.551 115.955 115.546 115.933 115.549C115.911 115.552 115.891 115.563 115.877 115.58C115.863 115.596 115.855 115.617 115.855 115.639C115.902 118.821 116.015 126.938 116.054 129.741L116.058 130.043C116.06 130.247 115.984 130.445 115.847 130.597C115.71 130.749 115.52 130.843 115.316 130.863L112.807 131.09C112.781 131.092 112.756 131.093 112.731 131.093Z" fill="#2F2E41" />
        <path d="M113.243 75.6776C112.466 76.138 112.001 76.9841 111.734 77.8451C111.24 79.4392 110.943 81.0872 110.849 82.753L110.567 87.7404L107.077 100.963C110.102 103.514 111.847 102.934 115.918 100.847C119.99 98.7599 120.455 101.543 120.455 101.543L121.27 90.2927L122.433 77.9989C122.172 77.6854 121.876 77.4021 121.552 77.1543C120.477 76.3207 119.226 75.7412 117.893 75.4597C116.561 75.1781 115.181 75.2017 113.859 75.5288L113.243 75.6776Z" fill="#6C63FF" />
        <path d="M112.109 91.1182C112.203 91.1534 112.294 91.1959 112.381 91.2453L120.419 87.2342L120.553 85.0612L123.868 84.8333L124.046 89.7868L113.304 93.3285C113.217 93.7036 113.016 94.0431 112.73 94.302C112.444 94.5609 112.086 94.7269 111.703 94.7778C111.32 94.8288 110.931 94.7623 110.587 94.5872C110.243 94.4121 109.96 94.1368 109.777 93.7978C109.594 93.4587 109.518 93.0721 109.561 92.6893C109.603 92.3065 109.762 91.9457 110.015 91.6548C110.268 91.3639 110.604 91.1568 110.978 91.0609C111.352 90.965 111.747 90.985 112.109 91.1182Z" fill="#FFB8B8" />
        <path d="M122.375 78.0552C124.352 78.7511 124.701 86.2906 124.701 86.2906C122.374 85.0147 119.582 87.1025 119.582 87.1025C119.582 87.1025 119.001 85.1308 118.303 82.5791C118.092 81.8614 118.067 81.1021 118.229 80.3721C118.392 79.642 118.737 78.9649 119.233 78.4037C119.233 78.4037 120.397 77.3589 122.375 78.0552Z" fill="#6C63FF" />
        <path d="M120.06 70.6678C119.505 70.2254 118.748 71.0296 118.748 71.0296L118.304 67.048C118.304 67.048 115.531 67.3792 113.756 66.9375C111.981 66.4958 111.704 68.5413 111.704 68.5413C111.613 67.715 111.594 66.8823 111.649 66.0528C111.76 65.0574 113.202 64.062 115.753 63.3984C118.304 62.7347 119.636 65.6104 119.636 65.6104C121.411 66.4951 120.614 71.1103 120.06 70.6678Z" fill="#2F2E41" />
    </g>
    <defs>
        <clipPath id="clip0_124_234">
            <rect width="135" height="135" fill="white" />
        </clipPath>
    </defs>
</svg>