<svg width="80" height="80" viewBox="0 0 463 463" fill="none" xmlns="http://www.w3.org/2000/svg">
    <path d="M459.995 8.49507C459.328 5.78807 457.214 3.67407 454.507 3.00707C442.34 0.0100741 429.572 -0.750926 416.551 0.752074C385.848 4.29207 355.676 19.5071 331.59 43.5921C307.505 67.6771 292.291 97.8501 288.75 128.553C287.419 140.097 287.873 151.442 290.082 162.347C289.977 162.457 289.862 162.553 289.763 162.671C256.749 201.893 234.397 244.493 219.5 286.661C206.712 237.031 187.638 191.375 162.596 150.663C125.317 90.0581 74.4554 39.7411 11.4204 1.10607C8.12437 -0.913926 3.83437 -0.0979257 1.50937 2.98907C-0.81563 6.07607 -0.41463 10.4241 2.43637 13.0331C78.9994 83.1081 132.936 164.55 162.751 255.096C175.307 293.229 192 355.491 192 455.5C192 459.643 195.358 463 199.5 463H231.5C235.642 463 239 459.643 239 455.5C239 450.063 238.971 444.497 238.941 438.812C238.549 364.109 238.055 269.531 302.888 173.351C308.992 174.447 315.226 174.999 321.551 174.999C325.813 174.998 330.118 174.749 334.448 174.249C365.151 170.709 395.323 155.494 419.408 131.409C443.493 107.324 458.708 77.1501 462.249 46.4481C463.752 33.4311 462.993 20.6611 459.995 8.49507ZM176.999 250.405C155.415 184.853 121.561 123.98 75.9864 68.6101C104.675 95.2211 129.367 125.272 149.819 158.522C178.085 204.476 198.543 256.995 210.648 314.624C206.69 328.709 203.502 342.647 200.955 356.296C196.628 323.677 189.311 287.798 176.999 250.405ZM223.941 438.891C223.958 441.963 223.973 445 223.984 448H207.05C207.711 398.731 215.08 337.124 239.617 275.789C223.4 335.698 223.697 392.412 223.941 438.891ZM447.349 44.7301C440.814 101.396 389.396 152.814 332.73 159.349C325.917 160.136 319.2 160.193 312.64 159.554C336.936 126.708 369.191 93.7781 412.015 61.4881C415.323 58.9951 415.982 54.2921 413.488 50.9841C410.995 47.6781 406.292 47.0181 402.985 49.5111C362.574 79.9811 329.447 112.328 303.184 147.045C302.852 141.543 302.997 135.94 303.652 130.27C310.187 73.6041 361.605 22.1861 418.271 15.6511C427.902 14.5411 437.348 14.8561 446.415 16.5871C448.144 25.6541 448.46 35.0991 447.349 44.7301Z" fill="#3B9D39" />
</svg>